{"title":"NHL 36 - Chicago Blackhawks [720p]","uid":8515731,"size":888069296,"categoryP":"video","categoryS":"hd___tv_shows","magnet":"?xt=urn:btih:a8c30dc4b57b6ffb7c98bb845bebc89b548724e3&amp;dn=NHL+36+-+Chicago+Blackhawks+%5B720p%5D&amp;tr=udp%3A%2F%2Ftracker.openbittorrent.com%3A80&amp;tr=udp%3A%2F%2Fopen.demonii.com%3A1337&amp;tr=udp%3A%2F%2Ftracker.coppersurfer.tk%3A6969&amp;tr=udp%3A%2F%2Fexodus.desync.com%3A6969","seeders":3,"leechers":0,"uploader":"lit01","files":1,"time":1369721662,"description":"Episode Synopsis: A behind-the-scenes look at the Blackhawks. Original Air Date: May 8, 2013. Contains Both parts 1 &amp; 2 combined in one 720p avi.\n\n\nGeneral\nComplete name                            : D:NHL 36 - Chicago Blackhawks 720p.avi\nFormat                                   : AVI\nFormat/Info                              : Audio Video Interleave\nFile size                                : 847 MiB\nDuration                                 : 425h 42mn\nOverall bit rate                         : 4 636 bps\n\nVideo\nID                                       : 0\nFormat                                   : AVC\nFormat/Info                              : Advanced Video Codec\nFormat profile                           : &lt;a class=&quot;__cf_email__&quot; href=&quot;/cdn-cgi/l/email-protection&quot; data-cfemail=&quot;4b03222c230b0778657a&quot;&gt;[email&amp;#160;protected]&lt;/a&gt;&lt;script cf-hash='f9e31' type=&quot;text/javascript&quot;&gt;\n/* &lt;![CDATA[ */!function(){try{var t=&quot;currentScript&quot;in document?document.currentScript:function(){for(var t=document.getElementsByTagName(&quot;script&quot;),e=t.length;e--;)if(t[e].getAttribute(&quot;cf-hash&quot;))return t[e]}();if(t&amp;&amp;t.previousSibling){var e,r,n,i,c=t.previousSibling,a=c.getAttribute(&quot;data-cfemail&quot;);if(a){for(e=&quot;&quot;,r=parseInt(a.substr(0,2),16),n=2;a.length-n;n+=2)i=parseInt(a.substr(n,2),16)^r,e+=String.fromCharCode(i);e=document.createTextNode(e),c.parentNode.replaceChild(e,c)}}}catch(u){}}();/* ]]&gt; */&lt;/script&gt;\nFormat settings, CABAC                   : Yes\nFormat settings, ReFrames                : 1 frame\nCodec ID                                 : H264\nDuration                                 : 45mn 50s\nBit rate                                 : 2 376 Kbps\nWidth                                    : 1 280 pixels\nHeight                                   : 720 pixels\nDisplay aspect ratio                     : 16:9\nFrame rate mode                          : Variable\nFrame rate                               : 29.970 fps\nColor space                              : YUV\nChroma subsampling                       : 4:2:0\nBit depth                                : 8 bits\nScan type                                : Progressive\nBits/(Pixel*Frame)                       : 0.086\nStream size                              : 779 MiB (92%)\n\nAudio\nID                                       : 1\nFormat                                   : AAC\nFormat/Info                              : Advanced Audio Codec\nFormat profile                           : LC\nCodec ID                                 : FF\nDuration                                 : 425h 42mn\nSource duration                          : 1h 8mn\nBit rate                                 : 128 Kbps\nChannel(s)                               : 2 channels\nChannel positions                        : Front: L R\nSampling rate                            : 44.1 KHz\nCompression mode                         : Lossy\nStream size                              : 62.9 MiB (7%)\nAlignment                                : Split accross interleaves\nInterleave, duration                     : 23 ms (0.70 video frame)\n\n","torrent":{"xt":"urn:btih:a8c30dc4b57b6ffb7c98bb845bebc89b548724e3","amp;dn":"NHL+36+-+Chicago+Blackhawks+%5B720p%5D","amp;tr":["udp%3A%2F%2Ftracker.openbittorrent.com%3A80","udp%3A%2F%2Fopen.demonii.com%3A1337","udp%3A%2F%2Ftracker.coppersurfer.tk%3A6969","udp%3A%2F%2Fexodus.desync.com%3A6969"],"infoHash":"a8c30dc4b57b6ffb7c98bb845bebc89b548724e3","infoHashBuffer":{"type":"Buffer","data":[168,195,13,196,181,123,111,251,124,152,187,132,91,235,200,155,84,135,36,227]},"announce":[],"urlList":[]}}